<?xml version="1.0" encoding="utf-8"?>
<svg xmlns="http://www.w3.org/2000/svg" viewBox="9.1671 8.737 9.6244 14.177" width="9.6244px" height="14.177px">
  <path d="M 11.066 17.314 L 12.867 19.115 L 12.867 9.849 C 12.867 9.235 13.366 8.737 13.98 8.737 C 14.594 8.737 15.092 9.235 15.092 9.849 L 15.092 19.114 L 16.893 17.313 C 17.111 17.095 17.395 16.986 17.68 16.986 C 17.964 16.986 18.249 17.095 18.466 17.313 C 18.9 17.747 18.9 18.451 18.466 18.886 L 14.766 22.586 C 14.74 22.612 14.713 22.636 14.686 22.659 C 14.679 22.664 14.673 22.668 14.667 22.673 C 14.645 22.69 14.623 22.707 14.598 22.723 C 14.592 22.727 14.585 22.731 14.581 22.734 C 14.556 22.751 14.531 22.765 14.504 22.78 C 14.5 22.783 14.497 22.784 14.492 22.786 C 14.463 22.801 14.435 22.815 14.405 22.827 C 14.403 22.827 14.4 22.828 14.399 22.83 C 14.368 22.842 14.336 22.854 14.304 22.864 C 14.301 22.864 14.297 22.865 14.295 22.867 C 14.263 22.877 14.231 22.884 14.199 22.891 C 14.19 22.893 14.181 22.894 14.174 22.895 C 14.147 22.9 14.119 22.905 14.091 22.908 C 14.054 22.911 14.017 22.914 13.98 22.914 C 13.943 22.914 13.906 22.911 13.869 22.908 C 13.84 22.905 13.813 22.9 13.786 22.895 C 13.777 22.894 13.768 22.893 13.761 22.891 C 13.728 22.885 13.695 22.877 13.665 22.867 C 13.662 22.867 13.658 22.865 13.656 22.864 C 13.624 22.854 13.592 22.843 13.561 22.83 C 13.558 22.83 13.556 22.828 13.553 22.827 C 13.524 22.815 13.495 22.801 13.467 22.786 C 13.463 22.784 13.458 22.783 13.454 22.78 C 13.428 22.767 13.404 22.751 13.378 22.734 C 13.372 22.731 13.366 22.727 13.36 22.723 C 13.337 22.707 13.314 22.69 13.291 22.673 C 13.285 22.668 13.279 22.664 13.273 22.659 C 13.244 22.636 13.217 22.612 13.192 22.586 L 9.493 18.886 C 9.058 18.453 9.059 17.748 9.493 17.313 C 9.927 16.879 10.631 16.879 11.066 17.313 L 11.066 17.314 Z" fill="#2D2B18" style=""/>
</svg>