<svg width="32" height="32" viewBox="0 0 32 32" fill="none" xmlns="http://www.w3.org/2000/svg">
<path d="M14.9444 23C14.3001 23 13.7778 22.4777 13.7778 21.8333C13.7778 21.189 14.3001 20.6667 14.9444 20.6667H17.0556C17.6999 20.6667 18.2222 21.189 18.2222 21.8333C18.2222 22.4777 17.6999 23 17.0556 23H14.9444ZM10.5 17.1667C9.85567 17.1667 9.33333 16.6443 9.33333 16C9.33333 15.3557 9.85567 14.8333 10.5 14.8333H21.5C22.1443 14.8333 22.6667 15.3557 22.6667 16C22.6667 16.6443 22.1443 17.1667 21.5 17.1667H10.5ZM7.16667 11.3333C6.52233 11.3333 6 10.811 6 10.1667C6 9.52233 6.52233 9 7.16667 9H24.8333C25.4777 9 26 9.52233 26 10.1667C26 10.811 25.4777 11.3333 24.8333 11.3333H7.16667Z" fill="#2D2B18"/>
</svg>