<svg width="28" height="28" viewBox="0 0 28 28" fill="none" xmlns="http://www.w3.org/2000/svg">
<path d="M24.5 8.16666H3.50004C2.85571 8.16666 2.33337 8.68899 2.33337 9.33332C2.33337 9.97766 2.85571 10.5 3.50004 10.5H24.5C25.1444 10.5 25.6667 9.97766 25.6667 9.33332C25.6667 8.68899 25.1444 8.16666 24.5 8.16666Z" fill="#636262"/>
<circle cx="19.8333" cy="9.33333" r="3.5" fill="white" stroke="#636262" stroke-width="2.33333"/>
<path d="M24.5 17.5H3.50004C2.85571 17.5 2.33337 18.0223 2.33337 18.6667C2.33337 19.311 2.85571 19.8333 3.50004 19.8333H24.5C25.1444 19.8333 25.6667 19.311 25.6667 18.6667C25.6667 18.0223 25.1444 17.5 24.5 17.5Z" fill="#636262"/>
<circle cx="8.16671" cy="18.6667" r="3.5" fill="white" stroke="#636262" stroke-width="2.33333"/>
</svg>
