<svg width="32" height="32" viewBox="0 0 32 32" fill="none" xmlns="http://www.w3.org/2000/svg">
<path d="M23.8862 16.6302C23.2719 16.6302 22.7737 17.1284 22.7737 17.7428V20.8417C22.7737 22.0012 21.8306 22.9456 20.6698 22.9456H11.8389C10.6794 22.9456 9.73503 22.0025 9.73503 20.8417V17.7428C9.73503 17.1284 9.23687 16.6302 8.62251 16.6302C8.00815 16.6302 7.50999 17.1284 7.50999 17.7428V20.8417C7.50999 23.2287 9.45195 25.1707 11.8389 25.1707H20.6711C23.058 25.1707 25 23.2287 25 20.8417V17.7428C25 17.1284 24.5018 16.6302 23.8875 16.6302H23.8862Z" fill="#2D2B18"/>
<path d="M13.3223 13.1048L15.1233 11.3038V20.5698C15.1233 21.1841 15.6215 21.6823 16.2358 21.6823C16.8502 21.6823 17.3484 21.1841 17.3484 20.5698V11.305L19.1494 13.106C19.367 13.3236 19.6513 13.4324 19.9356 13.4324C20.2199 13.4324 20.5054 13.3236 20.7218 13.106C21.1556 12.6722 21.1556 11.9676 20.7218 11.5324L17.022 7.8327C16.9961 7.80674 16.9689 7.78326 16.9417 7.75977C16.9355 7.75483 16.9293 7.75112 16.9231 7.74617C16.9009 7.72887 16.8786 7.71156 16.8539 7.69549C16.8477 7.69178 16.8415 7.68807 16.8366 7.68437C16.8119 7.6683 16.7871 7.65346 16.76 7.63863C16.7562 7.63616 16.7525 7.63492 16.7476 7.63245C16.7192 7.61761 16.6907 7.60402 16.6611 7.59166C16.6586 7.59166 16.6561 7.59042 16.6549 7.58918C16.624 7.57682 16.5918 7.56446 16.5597 7.55457C16.5572 7.55457 16.5535 7.55334 16.551 7.5521C16.5189 7.54221 16.4868 7.53479 16.4546 7.52738C16.446 7.52614 16.4373 7.52491 16.4299 7.52367C16.4027 7.51872 16.3755 7.51378 16.3471 7.51131C16.31 7.5076 16.2729 7.50513 16.2358 7.50513C16.1988 7.50513 16.1617 7.5076 16.1246 7.51131C16.0962 7.51378 16.069 7.51872 16.0418 7.52367C16.0331 7.52491 16.0245 7.52614 16.017 7.52738C15.9837 7.53356 15.9515 7.54221 15.9206 7.5521C15.9181 7.5521 15.9144 7.55334 15.912 7.55457C15.8798 7.56446 15.8477 7.57559 15.8168 7.58918C15.8143 7.58918 15.8118 7.59042 15.8094 7.59166C15.7797 7.60402 15.7513 7.61761 15.7228 7.63245C15.7191 7.63492 15.7142 7.63616 15.7105 7.63863C15.6845 7.65223 15.6598 7.6683 15.6338 7.68437C15.6277 7.68807 15.6215 7.69178 15.6165 7.69549C15.593 7.71156 15.5696 7.72887 15.5473 7.74617C15.5411 7.75112 15.535 7.75483 15.5288 7.75977C15.5003 7.78326 15.4731 7.80674 15.4484 7.8327L11.7487 11.5324C11.3136 11.9663 11.3148 12.6709 11.7487 13.106C12.1826 13.5399 12.8872 13.5399 13.3223 13.106V13.1048Z" fill="#2D2B18"/>
</svg>
