<svg width="121" height="42" viewBox="0 0 121 42" fill="none" xmlns="http://www.w3.org/2000/svg">
<path d="M26.862 3.40318C32.8708 -0.817075 40.8371 1.70675 40.8672 8.6476C40.7347 20.9843 43.2528 30.4351 27.4843 29.6679C24.6038 29.4683 21.6223 28.1566 18.5305 25.9694C7.75331 34.9989 12.3956 34.3757 2.32275 34.5868C7.94376 29.7294 10.6129 27.0843 14.7478 23.3405C14.6213 20.6676 16.0616 16.6506 17.7868 13.6087C18.6232 12.178 19.3952 11.0515 20.208 10.0486C22.5009 7.83781 24.4421 5.12416 26.8615 3.40318H26.862Z" fill="#FFD641"/>
<path d="M0.675462 35.2192L1.93127 34.134C5.67969 30.8953 8.15423 28.603 10.5477 26.3861C11.6802 25.3374 12.8489 24.2544 14.1418 23.0817C14.1302 21.8005 14.4263 20.1995 15.0037 18.4276C15.5593 16.7228 16.3624 14.9064 17.266 13.3133L17.2697 13.3063C18.1038 11.8789 18.8898 10.7242 19.7429 9.67176L19.766 9.64305L19.7925 9.61759C20.6247 8.81474 21.4273 7.92578 22.2035 7.06599C23.5469 5.57744 24.9357 4.03842 26.5145 2.91518L26.5173 2.91286C28.2193 1.71739 30.154 0.98539 32.1128 0.795096C34.0053 0.611285 35.8218 0.935385 37.3649 1.73221C39.9577 3.07075 41.4521 5.58994 41.4651 8.64436V8.65315C41.4479 10.2463 41.4753 11.7881 41.5017 13.2795C41.5545 16.2556 41.6041 19.067 41.2654 21.4575C40.8784 24.1905 40.0239 26.1162 38.5763 27.5186C37.4873 28.5733 36.085 29.3081 34.2889 29.7637C32.4344 30.2341 30.199 30.398 27.4543 30.2647L27.4418 30.2637C24.66 30.0711 21.7522 28.9118 18.5635 26.7218C15.6807 29.1562 13.9884 30.8267 12.74 32.0597C11.2947 33.4867 10.4986 34.2724 9.32153 34.6822C8.18157 35.079 6.76219 35.104 3.93454 35.154C3.44612 35.1628 2.9146 35.172 2.33396 35.1841L0.674072 35.2188L0.675462 35.2192ZM18.3063 13.9068C16.1353 17.7363 15.2553 21.3899 15.3462 23.3122L15.3596 23.5942L15.1501 23.7836C13.7808 25.0235 12.5509 26.1625 11.3619 27.2635C9.2358 29.2322 7.04625 31.2606 3.95956 33.9571C6.63012 33.9099 7.97582 33.8844 8.9295 33.5524C9.85119 33.2316 10.4935 32.5977 11.8999 31.2087C13.1385 29.9855 15.0107 28.1372 18.146 25.5106L18.5 25.2142L18.8768 25.4809C22.0279 27.7103 24.8551 28.884 27.5201 29.0701C30.141 29.1974 32.2597 29.0451 33.9956 28.6043C35.5832 28.2015 36.8093 27.5654 37.744 26.6597C38.9905 25.4522 39.7334 23.7461 40.0809 21.2898C40.4062 18.9929 40.3571 16.2279 40.3057 13.3003C40.2793 11.8025 40.2519 10.2533 40.2691 8.64482C40.2626 7.29332 39.9368 6.0872 39.301 5.06073C38.707 4.10139 37.871 3.33882 36.8167 2.7948C33.9988 1.34005 30.2277 1.77018 27.2082 3.89026C25.7369 4.93711 24.4528 6.35991 23.0937 7.86651C22.312 8.73279 21.5042 9.62777 20.6516 10.4519C19.8471 11.4478 19.1015 12.5461 18.3068 13.9054L18.3063 13.9068Z" fill="#FFD641"/>
<path d="M33.1731 6.69417C29.6494 5.81539 26.0146 6.91826 22.7212 7.42432L33.1731 6.69417Z" fill="#C28C2C"/>
<path d="M22.8125 8.01563L22.6304 6.83312C23.3236 6.72663 24.0224 6.59514 24.762 6.45578C27.5433 5.93212 30.4192 5.39087 33.3182 6.11362L33.0281 7.27436C30.3839 6.61505 27.6388 7.13176 24.9835 7.63134C24.2666 7.76653 23.5252 7.9059 22.812 8.01563H22.8125Z" fill="#C28C2C"/>
<path d="M40.5549 6.10999L47.2061 5.89099L41.0665 10.7108C40.9799 8.76623 41.3955 6.54753 40.5549 6.10999Z" fill="#C28C2C"/>
<path d="M41.0666 11.0941C41.0124 11.0941 40.9577 11.0826 40.9067 11.0594C40.776 10.9997 40.6898 10.8714 40.6834 10.7279C40.6574 10.1478 40.675 9.55559 40.6917 8.98285C40.7241 7.88925 40.7603 6.64933 40.3775 6.45024C40.2227 6.36967 40.1416 6.19512 40.1806 6.0252C40.2195 5.85528 40.3678 5.73258 40.542 5.72703L47.1932 5.50803C47.3572 5.50247 47.5097 5.60433 47.5662 5.7599C47.6232 5.91547 47.5732 6.09048 47.4425 6.19281L41.3029 11.0127C41.2339 11.0668 41.1505 11.0946 41.0657 11.0946L41.0666 11.0941ZM41.2937 6.46968C41.5152 7.09242 41.4887 8.00361 41.4591 9.00554C41.4503 9.31112 41.441 9.6218 41.4382 9.93108L46.0472 6.31273L41.2932 6.46922L41.2937 6.46968Z" fill="#C28C2C"/>
<path d="M45.5256 20.0777C44.9899 20.0777 44.5557 19.6439 44.5557 19.1086V16.6256C44.5557 16.0903 44.9899 15.6565 45.5256 15.6565C46.0612 15.6565 46.4954 16.0903 46.4954 16.6256V19.1086C46.4954 19.6439 46.0612 20.0777 45.5256 20.0777Z" fill="#2D2B18"/>
<path d="M57.8041 20.0051C57.2684 20.0051 56.8342 19.5712 56.8342 19.036V16.5529C56.8342 16.0177 57.2684 15.5839 57.8041 15.5839C58.3398 15.5839 58.774 16.0177 58.774 16.5529V19.036C58.774 19.5712 58.3398 20.0051 57.8041 20.0051Z" fill="#2D2B18"/>
<path d="M54.6613 21.9117C54.1256 21.9117 53.6914 21.4779 53.6914 20.9427V14.3287C53.6914 13.7935 54.1256 13.3596 54.6613 13.3596C55.197 13.3596 55.6312 13.7935 55.6312 14.3287V20.9427C55.6312 21.4779 55.197 21.9117 54.6613 21.9117Z" fill="white"/>
<path d="M48.7414 21.9974C48.2057 21.9974 47.7715 21.5636 47.7715 21.0283V14.4144C47.7715 13.8791 48.2057 13.4453 48.7414 13.4453C49.2771 13.4453 49.7113 13.8791 49.7113 14.4144V21.0283C49.7113 21.5636 49.2771 21.9974 48.7414 21.9974Z" fill="#2D2B18"/>
<path d="M51.7377 26.1282C51.202 26.1282 50.7678 25.6944 50.7678 25.1592V9.66389C50.7678 9.12866 51.202 8.69482 51.7377 8.69482C52.2734 8.69482 52.7076 9.12866 52.7076 9.66389V25.1596C52.7076 25.6949 52.2734 26.1287 51.7377 26.1287V26.1282Z" fill="#2D2B18"/>
<path d="M54.7345 22.1437C54.1989 22.1437 53.7646 21.7098 53.7646 21.1746V14.5606C53.7646 14.0254 54.1989 13.5916 54.7345 13.5916C55.2702 13.5916 55.7044 14.0254 55.7044 14.5606V21.1746C55.7044 21.7098 55.2702 22.1437 54.7345 22.1437Z" fill="#2D2B18"/>
<path d="M29.5914 34.158C29.1962 34.158 28.8755 33.8376 28.8755 33.4427V29.9271C28.8755 29.5322 29.1962 29.2118 29.5914 29.2118C29.9867 29.2118 30.3074 29.5322 30.3074 29.9271V33.4427C30.3074 33.8376 29.9867 34.158 29.5914 34.158Z" fill="#2D2B18"/>
<path d="M23.3793 34.2887C22.984 34.2887 22.6633 33.9683 22.6633 33.5734V29.2313C22.6633 28.8364 22.984 28.516 23.3793 28.516C23.7746 28.516 24.0952 28.8364 24.0952 29.2313V33.5734C24.0952 33.9683 23.7746 34.2887 23.3793 34.2887Z" fill="#2D2B18"/>
<path d="M55.831 35.1887H13.0006C12.6697 35.1887 12.4019 34.9211 12.4019 34.5905C12.4019 34.2599 12.6697 33.9923 13.0006 33.9923H55.831C56.1619 33.9923 56.4297 34.2599 56.4297 34.5905C56.4297 34.9211 56.1619 35.1887 55.831 35.1887Z" fill="#2D2B18"/>
<path d="M39.9702 34.5906L46.0365 28.5294L39.9702 34.5906Z" fill="#2D2B18"/>
<path d="M39.9702 35.1887C39.8168 35.1887 39.6638 35.1304 39.5466 35.0137C39.3126 34.7799 39.3126 34.4012 39.5466 34.1678L45.6129 28.1067C45.8465 27.8733 46.226 27.8733 46.4596 28.1067C46.6931 28.34 46.6936 28.7192 46.4596 28.9526L40.3932 35.0137C40.2765 35.1304 40.1231 35.1887 39.9697 35.1887H39.9702Z" fill="#2D2B18"/>
<path d="M40.3359 6.10999C38.916 6.52298 37.1116 6.67763 35.2927 6.62114L40.3359 6.10999Z" fill="#C28C2C"/>
<path d="M36.0262 7.23091C35.7788 7.23091 35.5281 7.22721 35.2737 7.21887L35.3108 6.02294C37.163 6.08082 38.8877 5.90765 40.1681 5.5354L40.5027 6.68411C39.2649 7.04386 37.7288 7.23045 36.0258 7.23045L36.0262 7.23091Z" fill="#C28C2C"/>
<path d="M34.5068 9.11018C35.5092 9.11018 36.3219 8.29822 36.3219 7.29661C36.3219 6.295 35.5092 5.48303 34.5068 5.48303C33.5043 5.48303 32.6917 6.295 32.6917 7.29661C32.6917 8.29822 33.5043 9.11018 34.5068 9.11018Z" fill="white"/>
<path d="M26.8263 3.39818C32.8352 -0.822081 40.8015 1.70174 40.8316 8.64259C40.6991 20.9793 43.2172 30.4301 27.4487 29.6629C24.5682 29.4633 21.5867 28.1516 18.4949 25.9644C7.71767 34.9939 12.36 34.6573 2.26904 34.66C7.89006 29.8027 10.5592 26.6409 14.6941 22.8975C14.5676 20.2246 16.0259 16.646 17.7516 13.6037C18.5881 12.173 19.3601 11.0465 20.1729 10.0436C20.5714 9.65935 20.9593 9.25978 21.3411 8.8528C21.361 8.8315 21.3805 8.81066 21.4004 8.78937C23.1914 6.87347 24.8495 4.80431 26.8263 3.39771V3.39818Z" fill="#FFD641"/>
<path d="M4.06849 35.259C3.82753 35.259 3.5759 35.259 3.31316 35.2586C2.98368 35.2586 2.63613 35.2581 2.26912 35.2581H0.661133L1.87755 34.2076C5.1547 31.3754 7.40171 29.1446 9.57505 26.987C11.0537 25.5189 12.4541 24.1289 14.0885 22.6395C14.0589 19.4035 16.0292 15.4278 17.2308 13.3086L17.2345 13.3017C18.0687 11.8747 18.8546 10.7195 19.7077 9.66709L19.7309 9.63839L19.7573 9.61292C20.1109 9.27169 20.4862 8.88925 20.9047 8.44338L20.963 8.38088C21.369 7.94658 21.7754 7.49654 22.1683 7.06086C23.5117 5.57231 24.9005 4.03329 26.4793 2.91005L26.4821 2.90774C28.1842 1.71227 30.1188 0.980263 32.0776 0.789969C33.9701 0.606158 35.7867 0.930259 37.3298 1.72708C39.9225 3.06562 41.4169 5.58481 41.4299 8.63923V8.64803C41.4128 10.2412 41.4401 11.783 41.4665 13.2743C41.5194 16.2505 41.5689 19.0619 41.2302 21.4523C40.8433 24.1854 39.9888 26.111 38.5411 27.5135C37.4521 28.5682 36.0499 29.303 34.2537 29.7586C32.3992 30.2294 30.1638 30.3929 27.4191 30.2595L27.407 30.2586C24.6253 30.066 21.7174 28.9067 18.5288 26.7167C15.538 29.2446 13.7665 31.0351 12.5793 32.2342C11.1483 33.6802 10.3596 34.477 9.11536 34.8775C8.02313 35.2289 6.64174 35.2581 4.06849 35.2581V35.259ZM3.85997 34.0626C6.44387 34.0636 7.79792 34.0455 8.74835 33.7399C9.71407 33.4292 10.3452 32.7912 11.728 31.3944C12.9764 30.1327 14.8633 28.2265 18.1104 25.5064L18.4644 25.21L18.8411 25.4767C21.9922 27.7061 24.8194 28.8803 27.484 29.0659C30.1054 29.1933 32.2236 29.0409 33.9595 28.6001C35.5471 28.1973 36.7732 27.5612 37.7079 26.6555C38.9544 25.448 39.6973 23.7419 40.0448 21.2857C40.3701 18.9887 40.321 16.2237 40.2696 13.2961C40.2432 11.7983 40.2158 10.2491 40.233 8.64062C40.2265 7.28912 39.9007 6.083 39.2649 5.05653C38.6708 4.09719 37.8349 3.33462 36.7806 2.7906C33.9632 1.33631 30.1916 1.76598 27.1726 3.88606C25.7013 4.93337 24.4172 6.35617 23.0576 7.86231C22.6609 8.3017 22.2513 8.75591 21.8384 9.19761L21.7786 9.26151C21.3569 9.71108 20.976 10.0995 20.616 10.4482C19.8115 11.4441 19.0659 12.5428 18.2712 13.9017C16.2753 17.4219 15.19 20.6902 15.2929 22.8691L15.3063 23.1511L15.0969 23.3405C13.3944 24.8818 11.9495 26.3166 10.4194 27.8353C8.50645 29.7345 6.53701 31.6898 3.86043 34.0622L3.85997 34.0626Z" fill="#FFD641"/>
<path d="M5.79923 20.6271L21.5643 25.3163C25.2618 26.1148 28.7396 22.6874 29.5796 19.1802C30.9281 13.5499 23.6346 9.34573 17.8339 13.3634L5.79866 20.6275L5.79923 20.6271Z" fill="#C28C2C"/>
<path d="M21.4153 25.8963L4.33049 20.8145L17.5086 12.8606C19.1074 11.7575 20.9228 11.1745 22.7598 11.1742C24.4414 11.1739 26.1001 11.6748 27.4302 12.5836C28.5217 13.3299 29.3571 14.3192 29.8462 15.4453C30.3703 16.6527 30.4796 17.9922 30.1619 19.3191C29.7067 21.2196 28.564 23.0432 27.0269 24.3221C25.3132 25.748 23.3284 26.3089 21.4382 25.9007L21.4159 25.896L21.4153 25.8963ZM7.26735 20.4397L21.7117 24.736C23.2279 25.0554 24.8419 24.5827 26.26 23.4028C27.5838 22.3014 28.6069 20.6709 28.997 19.0402C29.5041 16.9221 28.666 14.8776 26.7543 13.5711C25.6215 12.7969 24.2028 12.3705 22.7603 12.3705C21.1624 12.3705 19.5767 12.8838 18.1753 13.8545L18.1436 13.875L7.26747 20.4392L7.26735 20.4397Z" fill="#C28C2C"/>
<path d="M33.9765 8.01562C30.1173 8.87403 24.8216 8.6541 22.5361 8.27352L33.9765 8.01562Z" fill="#C28C2C"/>
<path d="M27.5484 9.39444C25.4742 9.39444 23.5882 9.24721 22.4065 9.04997L21.6294 8.92033L21.8884 7.36742L22.6656 7.49707C24.9747 7.88182 30.1119 8.06841 33.8052 7.24751L34.5739 7.07666L34.9164 8.61336L34.1476 8.78421C32.1448 9.22962 29.7412 9.39444 27.5484 9.39444Z" fill="#C28C2C"/>
<path d="M34.5786 9.94637C35.581 9.94637 36.3937 9.1344 36.3937 8.13279C36.3937 7.13118 35.581 6.31921 34.5786 6.31921C33.5761 6.31921 32.7634 7.13118 32.7634 8.13279C32.7634 9.1344 33.5761 9.94637 34.5786 9.94637Z" fill="#2D2B18"/>
<path d="M21.8904 7.37109L20.7898 8.56332C21.0155 8.655 21.3829 8.88094 21.6299 8.91937C21.7467 8.55128 21.9288 7.99892 21.92 7.59565L21.8908 7.37109H21.8904Z" fill="#C28C2C"/>
<path d="M49.39 41.5389C49.5433 41.5389 49.6963 41.4806 49.8135 41.3639C50.0475 41.1301 50.0475 40.7514 49.8135 40.518L43.7472 34.4569C43.5136 34.2235 43.1341 34.2235 42.9005 34.4569C42.667 34.6902 42.6665 35.0694 42.9005 35.3028L48.9669 41.3639C49.0837 41.4806 49.237 41.5389 49.3904 41.5389H49.39Z" fill="#2D2B18"/>
<path d="M73.1075 26V10.4509H77.5367L84.5809 21.4531H84.84L84.628 10.4509H87.9263V26H83.9212L76.4765 14.4795H76.2173L76.4294 26H73.1075ZM98.5136 26.3298C97.3042 26.3298 96.2205 26.1649 95.2624 25.8351C94.32 25.4895 93.5112 24.987 92.8358 24.3273C92.1762 23.6519 91.6736 22.8195 91.328 21.83C90.9825 20.8405 90.8097 19.694 90.8097 18.3904C90.8097 17.071 90.9825 15.9009 91.328 14.88C91.6893 13.8591 92.1997 12.9953 92.8594 12.2885C93.5347 11.566 94.3279 11.0242 95.2389 10.6629C96.1498 10.3017 97.1629 10.1211 98.278 10.1211C99.1418 10.1211 99.9429 10.2389 100.681 10.4745C101.419 10.6943 102.055 11.0163 102.589 11.4404C103.123 11.8644 103.54 12.3828 103.838 12.9953C104.152 13.6078 104.317 14.2989 104.333 15.0685L101.199 15.8931C101.199 15.2334 101.05 14.6837 100.752 14.2439C100.469 13.8042 100.092 13.4743 99.6209 13.2544C99.1654 13.0189 98.6785 12.9011 98.1602 12.9011C97.7047 12.9011 97.2492 12.9953 96.7938 13.1838C96.354 13.3565 95.9456 13.655 95.5687 14.079C95.2074 14.4874 94.909 15.0292 94.6734 15.7046C94.4535 16.38 94.3436 17.2045 94.3436 18.1783C94.3436 19.4505 94.5242 20.4793 94.8855 21.2646C95.2624 22.0499 95.7729 22.631 96.4168 23.008C97.0608 23.3692 97.7833 23.5498 98.5843 23.5498C99.4481 23.5498 100.116 23.3771 100.587 23.0315C101.074 22.6703 101.419 22.2148 101.623 21.6651C101.843 21.0997 101.961 20.5028 101.977 19.8746L104.945 20.3693C104.93 21.2018 104.804 21.9871 104.568 22.7253C104.333 23.4477 103.964 24.0838 103.461 24.6336C102.958 25.1676 102.299 25.5838 101.482 25.8822C100.665 26.1806 99.6758 26.3298 98.5136 26.3298ZM93.896 4.37261L97.7833 6.58718L101.647 4.37261V6.917L97.7833 9.08446L93.896 6.917V4.37261ZM113.649 26.3298C112.628 26.3298 111.709 26.2277 110.892 26.0236C110.091 25.8351 109.4 25.5445 108.819 25.1519C108.254 24.7435 107.806 24.2409 107.476 23.6441C107.162 23.0315 106.981 22.3326 106.934 21.5473L109.903 20.5814C109.934 21.2881 110.107 21.8771 110.421 22.3483C110.751 22.8195 111.214 23.165 111.811 23.3849C112.408 23.6048 113.075 23.7148 113.814 23.7148C114.52 23.7148 115.117 23.6284 115.604 23.4556C116.091 23.2828 116.46 23.0551 116.711 22.7724C116.963 22.474 117.088 22.152 117.088 21.8065C117.088 21.3981 116.931 21.0683 116.617 20.817C116.303 20.5657 115.871 20.3536 115.321 20.1809C114.787 20.0081 114.175 19.8432 113.484 19.6861C112.714 19.5134 111.952 19.317 111.199 19.0971C110.46 18.8773 109.785 18.5945 109.172 18.249C108.576 17.9035 108.097 17.4558 107.735 16.9061C107.39 16.3564 107.217 15.6653 107.217 14.8329C107.217 13.8748 107.453 13.0503 107.924 12.3592C108.411 11.6524 109.118 11.1027 110.044 10.71C110.971 10.3174 112.086 10.1211 113.39 10.1211C114.709 10.1211 115.832 10.3174 116.759 10.71C117.701 11.087 118.431 11.6289 118.95 12.3356C119.468 13.0267 119.751 13.8513 119.798 14.8094L116.735 15.6575C116.735 15.1706 116.656 14.7465 116.499 14.3853C116.342 14.024 116.122 13.7256 115.84 13.49C115.557 13.2387 115.204 13.0503 114.78 12.9246C114.371 12.799 113.9 12.7361 113.366 12.7361C112.754 12.7361 112.219 12.8147 111.764 12.9717C111.324 13.1288 110.987 13.3408 110.751 13.6078C110.531 13.8748 110.421 14.189 110.421 14.5502C110.421 14.9743 110.594 15.3277 110.939 15.6104C111.301 15.8774 111.772 16.0973 112.353 16.27C112.95 16.4428 113.602 16.6077 114.308 16.7648C114.984 16.9061 115.667 17.0867 116.358 17.3066C117.065 17.5108 117.717 17.7857 118.313 18.1312C118.926 18.461 119.413 18.9165 119.774 19.4976C120.151 20.0631 120.34 20.7777 120.34 21.6415C120.34 22.5839 120.088 23.4085 119.586 24.1153C119.083 24.822 118.329 25.3718 117.324 25.7644C116.335 26.1414 115.109 26.3298 113.649 26.3298Z" fill="#2D2B18"/>
</svg>
