<svg width="104" height="74" viewBox="0 0 104 74" fill="none" xmlns="http://www.w3.org/2000/svg">
<path d="M46.8897 4.87722C57.6433 -2.67545 71.9 1.84124 71.9539 14.2627C71.7167 36.3407 76.2231 53.2541 48.0035 51.8811C42.8485 51.5239 37.5128 49.1765 31.9796 45.2622C12.6925 61.4215 21.0004 60.3063 2.97382 60.6841C13.0333 51.9913 17.8101 47.2575 25.21 40.5575C24.9836 35.774 27.5611 28.5851 30.6486 23.1412C32.1455 20.5808 33.5271 18.5648 34.9817 16.7701C39.0851 12.8135 42.5591 7.95711 46.8889 4.87722H46.8897Z" fill="#FFD641"/>
<path d="M0.0256813 61.8159L2.2731 59.8737C8.98136 54.0777 13.4099 49.9753 17.6932 46.008C19.72 44.1312 21.8116 42.1931 24.1253 40.0943C24.1046 37.8015 24.6345 34.9362 25.6678 31.7652C26.6622 28.7143 28.0994 25.4637 29.7165 22.6125L29.7231 22.6001C31.2159 20.0455 32.6224 17.979 34.1491 16.0956L34.1906 16.0442L34.2379 15.9987C35.7273 14.5619 37.1637 12.971 38.5528 11.4323C40.9569 8.76832 43.4423 6.01406 46.2678 4.00388L46.2728 3.99974C49.3188 1.8603 52.7812 0.550287 56.2866 0.209733C59.6735 -0.11922 62.9244 0.460798 65.686 1.88681C70.326 4.28229 73.0005 8.79069 73.0237 14.2569V14.2727C72.993 17.1239 73.0419 19.8831 73.0892 22.552C73.1838 27.8783 73.2725 32.9095 72.6663 37.1875C71.9738 42.0788 70.4446 45.5249 67.8538 48.0347C65.9049 49.9223 63.3955 51.2373 60.1811 52.0526C56.8622 52.8944 52.8616 53.1878 47.9496 52.9491L47.9272 52.9475C42.9489 52.6028 37.745 50.528 32.0386 46.6087C26.8794 50.9655 23.8508 53.955 21.6167 56.1616C19.0301 58.7153 17.6053 60.1215 15.4989 60.8548C13.4588 61.5649 10.9186 61.6096 5.85819 61.6991C4.9841 61.7149 4.03289 61.7314 2.99377 61.753L0.0231934 61.8151L0.0256813 61.8159ZM31.5783 23.6748C27.693 30.5281 26.1181 37.0666 26.2807 40.5069L26.3047 41.0115L25.9299 41.3504C23.4793 43.5694 21.2783 45.6078 19.1503 47.5782C15.3455 51.1014 11.427 54.7314 5.90297 59.5572C10.6823 59.4727 13.0906 59.4271 14.7973 58.833C16.4468 58.2588 17.5962 57.1244 20.1131 54.6386C22.3299 52.4495 25.6803 49.1417 31.2914 44.4411L31.9249 43.9108L32.5992 44.3881C38.2385 48.3778 43.298 50.4783 48.0674 50.8113C52.7579 51.0392 56.5495 50.7666 59.6561 49.9778C62.4973 49.2569 64.6917 48.1184 66.3644 46.4977C68.5952 44.3367 69.9246 41.2833 70.5466 36.8876C71.1287 32.7769 71.0408 27.8285 70.9488 22.5893C70.9015 19.9088 70.8526 17.1363 70.8833 14.2578C70.8717 11.8391 70.2887 9.6806 69.1508 7.8436C68.0877 6.12675 66.5916 4.76205 64.7049 3.78845C59.6619 1.18499 52.913 1.95476 47.5093 5.74891C44.8762 7.62237 42.5782 10.1686 40.1459 12.8649C38.7468 14.4152 37.3013 16.0169 35.7754 17.4918C34.3357 19.2741 33.0014 21.2395 31.5791 23.6723L31.5783 23.6748Z" fill="#FFD641"/>
<path d="M58.1843 10.7669C51.8782 9.19424 45.3731 11.168 39.4792 12.0736L58.1843 10.7669Z" fill="#C28C2C"/>
<path d="M39.6425 13.1317L39.3166 11.0155C40.5572 10.8249 41.8078 10.5896 43.1314 10.3402C48.1089 9.40303 53.2556 8.4344 58.4437 9.72784L57.9246 11.8051C53.1925 10.6252 48.2797 11.5499 43.5278 12.444C42.2449 12.6859 40.918 12.9353 39.6417 13.1317H39.6425Z" fill="#C28C2C"/>
<path d="M71.395 9.72126L83.2981 9.32933L72.3106 17.955C72.1555 14.4749 72.8994 10.5043 71.395 9.72126Z" fill="#C28C2C"/>
<path d="M72.3105 18.6411C72.2135 18.6411 72.1156 18.6203 72.0244 18.5789C71.7906 18.472 71.6363 18.2425 71.6247 17.9856C71.5783 16.9474 71.6098 15.8876 71.6396 14.8627C71.6977 12.9055 71.7624 10.6865 71.0774 10.3302C70.8004 10.1861 70.6552 9.87367 70.7249 9.56958C70.7946 9.26548 71.0599 9.0459 71.3718 9.03596L83.2748 8.64403C83.5684 8.63409 83.8412 8.81638 83.9424 9.09479C84.0444 9.3732 83.9548 9.68641 83.721 9.86953L72.7335 18.4952C72.6099 18.5922 72.4606 18.6419 72.3089 18.6419L72.3105 18.6411ZM72.7169 10.365C73.1133 11.4795 73.066 13.1102 73.013 14.9033C72.9972 15.4501 72.9806 16.0061 72.9756 16.5596L81.2239 10.0841L72.7161 10.3642L72.7169 10.365Z" fill="#C28C2C"/>
<path d="M80.2901 34.7183C79.3314 34.7183 78.5544 33.9419 78.5544 32.9841V28.5403C78.5544 27.5825 79.3314 26.8061 80.2901 26.8061C81.2488 26.8061 82.0259 27.5825 82.0259 28.5403V32.9841C82.0259 33.9419 81.2488 34.7183 80.2901 34.7183Z" fill="#2D2B18"/>
<path d="M102.264 34.5882C101.306 34.5882 100.529 33.8118 100.529 32.854V28.4102C100.529 27.4523 101.306 26.6759 102.264 26.6759C103.223 26.6759 104 27.4523 104 28.4102V32.854C104 33.8118 103.223 34.5882 102.264 34.5882Z" fill="#2D2B18"/>
<path d="M96.6399 38.0004C95.6812 38.0004 94.9042 37.224 94.9042 36.2661V24.4296C94.9042 23.4718 95.6812 22.6954 96.6399 22.6954C97.5986 22.6954 98.3757 23.4718 98.3757 24.4296V36.2661C98.3757 37.224 97.5986 38.0004 96.6399 38.0004Z" fill="white"/>
<path d="M86.0456 38.1537C85.0869 38.1537 84.3098 37.3773 84.3098 36.4194V24.5829C84.3098 23.6251 85.0869 22.8487 86.0456 22.8487C87.0042 22.8487 87.7813 23.6251 87.7813 24.5829V36.4194C87.7813 37.3773 87.0042 38.1537 86.0456 38.1537Z" fill="#2D2B18"/>
<path d="M91.4078 45.5464C90.4491 45.5464 89.6721 44.77 89.6721 43.8122V16.0815C89.6721 15.1236 90.4491 14.3472 91.4078 14.3472C92.3665 14.3472 93.1435 15.1236 93.1435 16.0815V43.813C93.1435 44.7709 92.3665 45.5473 91.4078 45.5473V45.5464Z" fill="#2D2B18"/>
<path d="M96.771 38.4155C95.8123 38.4155 95.0352 37.6391 95.0352 36.6813V24.8448C95.0352 23.8869 95.8123 23.1105 96.771 23.1105C97.7296 23.1105 98.5067 23.8869 98.5067 24.8448V36.6813C98.5067 37.6391 97.7296 38.4155 96.771 38.4155Z" fill="#2D2B18"/>
<path d="M51.7744 59.9168C51.067 59.9168 50.4932 59.3434 50.4932 58.6366V52.3451C50.4932 51.6383 51.067 51.0649 51.7744 51.0649C52.4818 51.0649 53.0557 51.6383 53.0557 52.3451V58.6366C53.0557 59.3434 52.4818 59.9168 51.7744 59.9168Z" fill="#2D2B18"/>
<path d="M40.6568 60.1505C39.9494 60.1505 39.3755 59.5771 39.3755 58.8703V51.0997C39.3755 50.3929 39.9494 49.8195 40.6568 49.8195C41.3642 49.8195 41.938 50.3929 41.938 51.0997V58.8703C41.938 59.5771 41.3642 60.1505 40.6568 60.1505Z" fill="#2D2B18"/>
<path d="M98.7331 61.7613H22.0828C21.4907 61.7613 21.0114 61.2823 21.0114 60.6907C21.0114 60.0991 21.4907 59.6202 22.0828 59.6202H98.7331C99.3252 59.6202 99.8046 60.0991 99.8046 60.6907C99.8046 61.2823 99.3252 61.7613 98.7331 61.7613Z" fill="#2D2B18"/>
<path d="M70.3484 60.6907L81.2049 49.8435L70.3484 60.6907Z" fill="#2D2B18"/>
<path d="M70.3485 61.7613C70.074 61.7613 69.8003 61.6569 69.5905 61.4481C69.1717 61.0296 69.1717 60.3518 69.5905 59.9342L80.4469 49.087C80.8649 48.6694 81.5441 48.6694 81.9621 49.087C82.38 49.5047 82.3809 50.1833 81.9621 50.6009L71.1056 61.4481C70.8966 61.6569 70.6221 61.7613 70.3476 61.7613H70.3485Z" fill="#2D2B18"/>
<path d="M71.0028 9.72121C68.4618 10.4603 65.2324 10.7371 61.9774 10.636L71.0028 9.72121Z" fill="#C28C2C"/>
<path d="M63.2902 11.7272C62.8474 11.7272 62.3987 11.7206 61.9434 11.7057L62.0098 9.56543C65.3245 9.669 68.4112 9.35911 70.7026 8.69292L71.3013 10.7487C69.0862 11.3925 66.3371 11.7264 63.2894 11.7264L63.2902 11.7272Z" fill="#C28C2C"/>
<path d="M60.5708 15.0905C62.3649 15.0905 63.8192 13.6374 63.8192 11.8449C63.8192 10.0524 62.3649 8.59927 60.5708 8.59927C58.7768 8.59927 57.3224 10.0524 57.3224 11.8449C57.3224 13.6374 58.7768 15.0905 60.5708 15.0905Z" fill="white"/>
<path d="M46.826 4.86808C57.5796 -2.68459 71.8362 1.8321 71.8901 14.2536C71.653 36.3316 76.1594 53.2449 47.9398 51.8719C42.7848 51.5148 37.449 49.1674 31.9159 45.2531C12.6287 61.4124 20.9367 60.81 2.87775 60.815C12.9372 52.1222 17.714 46.4637 25.1139 39.7645C24.8875 34.981 27.4974 28.5767 30.5857 23.132C32.0826 20.5717 33.4642 18.5557 34.9188 16.7609C35.632 16.0732 36.3262 15.3581 37.0095 14.6298C37.0452 14.5917 37.08 14.5544 37.1157 14.5163C40.3209 11.0875 43.2882 7.38453 46.826 4.86725V4.86808Z" fill="#FFD641"/>
<path d="M6.09789 61.887C5.66665 61.887 5.21634 61.887 4.74612 61.8862C4.15648 61.8862 3.5345 61.8854 2.87769 61.8854H0L2.17693 60.0053C8.04178 54.9368 12.0631 50.9446 15.9525 47.0833C18.5989 44.4558 21.105 41.9684 24.03 39.3028C23.9769 33.5117 27.5031 26.3965 29.6535 22.6041L29.6601 22.5916C31.1529 20.0379 32.5594 17.9705 34.0862 16.0871L34.1276 16.0358L34.1749 15.9902C34.8076 15.3795 35.4794 14.6951 36.2282 13.8972L36.3327 13.7853C37.0592 13.0081 37.7865 12.2027 38.4898 11.423C40.8939 8.75902 43.3794 6.00476 46.2048 3.99458L46.2098 3.99044C49.2558 1.851 52.7182 0.540987 56.2237 0.200433C59.6105 -0.12852 62.8614 0.451498 65.623 1.87751C70.263 4.27299 72.9375 8.78139 72.9607 14.2476V14.2634C72.93 17.1146 72.979 19.8738 73.0262 22.5427C73.1208 27.869 73.2095 32.9002 72.6033 37.1783C71.9108 42.0695 70.3816 45.5156 67.7908 48.0254C65.8419 49.913 63.3325 51.228 60.1181 52.0433C56.7992 52.886 52.7986 53.1785 47.8866 52.9398L47.8651 52.9382C42.8867 52.5935 37.6829 50.5187 31.9764 46.5994C26.6241 51.1236 23.4536 54.3277 21.3289 56.4738C18.768 59.0615 17.3566 60.4875 15.1299 61.2043C13.1752 61.8332 10.703 61.8854 6.09789 61.8854V61.887ZM5.7247 59.7459C10.3489 59.7476 12.7721 59.7153 14.4731 59.1684C16.2013 58.6124 17.3308 57.4706 19.8055 54.9707C22.0396 52.7128 25.4166 49.3015 31.2275 44.4335L31.8611 43.9032L32.5354 44.3804C38.1746 48.3701 43.2342 50.4714 48.0027 50.8037C52.6941 51.0316 56.4849 50.759 59.5915 49.9701C62.4327 49.2493 64.627 48.1108 66.2997 46.49C68.5306 44.3291 69.8599 41.2757 70.4819 36.88C71.0641 32.7693 70.9762 27.8209 70.8841 22.5817C70.8369 19.9012 70.7879 17.1287 70.8186 14.2501C70.807 11.8315 70.224 9.67296 69.0862 7.83596C68.023 6.11911 66.527 4.75441 64.6403 3.7808C59.5981 1.17818 52.8484 1.94712 47.4454 5.74127C44.8124 7.61555 42.5144 10.1618 40.0812 12.8573C39.3713 13.6436 38.6382 14.4565 37.8993 15.2469L37.7923 15.3613C37.0377 16.1659 36.356 16.861 35.7116 17.485C34.2719 19.2673 32.9376 21.2336 31.5153 23.6655C27.9435 29.9653 26.0012 35.8144 26.1853 39.7138L26.2094 40.2184L25.8346 40.5573C22.7877 43.3157 20.2019 45.8835 17.4635 48.6013C14.0402 52.0002 10.5156 55.4994 5.72553 59.7451L5.7247 59.7459Z" fill="#FFD641"/>
<path d="M9.19523 35.7016L37.4087 44.0934C44.0259 45.5223 50.2498 39.3885 51.7532 33.112C54.1664 23.036 41.1138 15.5121 30.7327 22.7023L9.19421 35.7021L9.19523 35.7016Z" fill="#C28C2C"/>
<path d="M37.1424 45.1313L6.56695 36.0368L30.1507 21.8024C33.0121 19.8282 36.2609 18.7848 39.5485 18.7843C42.5579 18.7839 45.5263 19.6802 47.9067 21.3066C49.8602 22.6422 51.3552 24.4127 52.2304 26.4279C53.1683 28.5887 53.3639 30.986 52.7954 33.3607C51.9808 36.7619 49.9358 40.0254 47.1849 42.3142C44.1181 44.866 40.5661 45.8697 37.1832 45.1393L37.1434 45.1308L37.1424 45.1313ZM11.8228 35.3661L37.6728 43.0548C40.3862 43.6265 43.2746 42.7804 45.8126 40.6689C48.1815 38.6979 50.0125 35.7799 50.7108 32.8616C51.6182 29.0709 50.1182 25.412 46.6971 23.0738C44.6697 21.6884 42.1309 20.9253 39.5494 20.9253C36.6898 20.9253 33.8518 21.8439 31.3439 23.581L31.2873 23.6177L11.823 35.3653L11.8228 35.3661Z" fill="#C28C2C"/>
<path d="M59.6222 13.1317C52.7158 14.6679 43.2385 14.2743 39.1483 13.5932L59.6222 13.1317Z" fill="#C28C2C"/>
<path d="M48.1181 15.5993C44.4061 15.5993 41.0308 15.3358 38.9161 14.9828L37.5253 14.7508L37.9889 11.9717L39.3797 12.2037C43.5121 12.8922 52.7058 13.2262 59.3154 11.757L60.6912 11.4513L61.304 14.2014L59.9282 14.5072C56.344 15.3043 52.0423 15.5993 48.1181 15.5993Z" fill="#C28C2C"/>
<path d="M60.6994 16.587C62.4935 16.587 63.9478 15.1339 63.9478 13.3413C63.9478 11.5488 62.4935 10.0957 60.6994 10.0957C58.9054 10.0957 57.451 11.5488 57.451 13.3413C57.451 15.1339 58.9054 16.587 60.6994 16.587Z" fill="#2D2B18"/>
<path d="M37.9922 11.9783L36.0226 14.112C36.4265 14.276 37.0841 14.6804 37.5261 14.7491C37.7351 14.0904 38.061 13.1019 38.0453 12.3802L37.993 11.9783H37.9922Z" fill="#C28C2C"/>
<path d="M87.2063 73.1258C87.4808 73.1258 87.7545 73.0214 87.9643 72.8126C88.3831 72.3942 88.3831 71.7164 87.9643 71.2987L77.1078 60.4516C76.6899 60.034 76.0107 60.034 75.5927 60.4516C75.1747 60.8692 75.1739 61.5478 75.5927 61.9654L86.4491 72.8126C86.6581 73.0214 86.9326 73.1258 87.2071 73.1258H87.2063Z" fill="#2D2B18"/>
</svg>
