<svg width="24" height="24" viewBox="0 0 24 24" fill="none" xmlns="http://www.w3.org/2000/svg">
<g filter="url(#filter0_d_85_417)">
<rect x="4" y="4" width="16" height="16" rx="4" fill="#2D2B18"/>
<rect x="3.33333" y="3.33333" width="17.3333" height="17.3333" rx="4.66667" stroke="#2D2B18" stroke-width="1.33333"/>
<path d="M10.78 13.9533C10.7311 13.4449 10.7556 13.0244 10.8534 12.692C10.9511 12.3498 11.0929 12.0662 11.2787 11.8413C11.4743 11.6164 11.6845 11.4209 11.9094 11.2547C12.1343 11.0884 12.3494 10.9271 12.5547 10.7707C12.76 10.6142 12.9263 10.4382 13.0534 10.2427C13.1903 10.0373 13.2587 9.788 13.2587 9.49467C13.2587 9.05467 13.112 8.72712 12.8187 8.512C12.5351 8.28712 12.1831 8.17467 11.7627 8.17467C11.5378 8.17467 11.2983 8.20889 11.044 8.27734C10.7898 8.336 10.5405 8.43378 10.296 8.57067C10.0516 8.69778 9.81692 8.864 9.59203 9.06934L9.46003 7.676C9.6947 7.48045 9.94403 7.31912 10.208 7.192C10.472 7.05512 10.7458 6.95245 11.0294 6.884C11.3227 6.81556 11.6209 6.78134 11.924 6.78134C12.3151 6.78134 12.6867 6.83512 13.0387 6.94267C13.3907 7.05023 13.6987 7.21156 13.9627 7.42667C14.2365 7.64178 14.4516 7.91067 14.608 8.23334C14.7645 8.556 14.8427 8.92756 14.8427 9.348C14.8427 9.76845 14.7694 10.1156 14.6227 10.3893C14.4858 10.6631 14.3049 10.8978 14.08 11.0933C13.8649 11.2889 13.6351 11.4747 13.3907 11.6507C13.1463 11.8169 12.9165 11.9978 12.7014 12.1933C12.496 12.3889 12.3347 12.6284 12.2174 12.912C12.1 13.1858 12.056 13.5329 12.0854 13.9533H10.78ZM11.4987 16.8427C11.1467 16.8427 10.8778 16.7644 10.692 16.608C10.516 16.4516 10.428 16.2071 10.428 15.8747C10.428 15.5324 10.516 15.2831 10.692 15.1267C10.8778 14.9702 11.1467 14.892 11.4987 14.892C11.8703 14.892 12.1489 14.9702 12.3347 15.1267C12.5205 15.2831 12.6134 15.5324 12.6134 15.8747C12.6134 16.52 12.2418 16.8427 11.4987 16.8427Z" fill="white"/>
</g>
<defs>
<filter id="filter0_d_85_417" x="-2.6226e-06" y="5.00679e-06" width="24" height="24" filterUnits="userSpaceOnUse" color-interpolation-filters="sRGB">
<feFlood flood-opacity="0" result="BackgroundImageFix"/>
<feColorMatrix in="SourceAlpha" type="matrix" values="0 0 0 0 0 0 0 0 0 0 0 0 0 0 0 0 0 0 127 0" result="hardAlpha"/>
<feOffset/>
<feGaussianBlur stdDeviation="1.33333"/>
<feComposite in2="hardAlpha" operator="out"/>
<feColorMatrix type="matrix" values="0 0 0 0 0 0 0 0 0 0 0 0 0 0 0 0 0 0 0.12 0"/>
<feBlend mode="normal" in2="BackgroundImageFix" result="effect1_dropShadow_85_417"/>
<feBlend mode="normal" in="SourceGraphic" in2="effect1_dropShadow_85_417" result="shape"/>
</filter>
</defs>
</svg>
