<svg width="32" height="32" viewBox="0 0 32 32" fill="none" xmlns="http://www.w3.org/2000/svg">
<path fill-rule="evenodd" clip-rule="evenodd" d="M16.0006 16C14.0054 16 12.3837 14.3854 12.3837 12.4001C12.3837 10.4148 14.0054 8.80028 16.0006 8.80028C17.9958 8.80028 19.6176 10.4148 19.6176 12.4001C19.6176 14.3854 17.9958 16 16.0006 16ZM19.3989 16.6056C20.1425 16.0135 20.7159 15.235 21.0609 14.3492C21.4058 13.4635 21.5099 12.5022 21.3626 11.5631C21.0053 9.20251 19.0326 7.31353 16.6504 7.03814C13.3637 6.65746 10.5756 9.20436 10.5756 12.4001C10.5756 14.1011 11.3676 15.6166 12.6024 16.6056C9.56769 17.7405 7.35198 20.4053 7.00459 24.0015C6.99245 24.1277 7.00676 24.255 7.0466 24.3753C7.08644 24.4955 7.15095 24.6062 7.23599 24.7001C7.32103 24.7941 7.42474 24.8691 7.54048 24.9207C7.65622 24.9723 7.78145 24.9992 7.90816 24.9996C8.13027 25.0014 8.34503 24.9202 8.51034 24.7719C8.67566 24.6235 8.77962 24.4187 8.80182 24.1977C9.1645 20.1812 12.2541 17.7999 16.0006 17.7999C19.7472 17.7999 22.8367 20.1812 23.1994 24.1977C23.2216 24.4187 23.3256 24.6235 23.4909 24.7719C23.6562 24.9202 23.871 25.0014 24.0931 24.9996C24.6295 24.9996 25.047 24.5334 24.9957 24.0015C24.6492 20.4053 22.4335 17.7405 19.398 16.6056" fill="#2D2B18"/>
<path d="M19.3989 16.6056C20.1425 16.0135 20.7159 15.235 21.0609 14.3492C21.4058 13.4635 21.5099 12.5022 21.3626 11.5631C21.0053 9.20251 19.0326 7.31353 16.6504 7.03814C13.3637 6.65746 10.5756 9.20436 10.5756 12.4001C10.5756 14.1011 11.3676 15.6166 12.6024 16.6056C9.56769 17.7405 7.35198 20.4053 7.00459 24.0015C6.99245 24.1277 7.00676 24.255 7.0466 24.3753C7.08644 24.4955 7.15095 24.6062 7.23599 24.7001C7.32103 24.7941 7.42474 24.8691 7.54048 24.9207C7.65622 24.9723 7.78145 24.9992 7.90816 24.9996C8.13027 25.0014 8.34503 24.9202 8.51034 24.7719C8.67566 24.6235 8.77962 24.4187 8.80182 24.1977C9.1645 20.1812 12.2541 17.7999 16.0006 17.7999C19.7472 17.7999 22.8367 20.1812 23.1994 24.1977C23.2216 24.4187 23.3256 24.6235 23.4909 24.7719C23.6562 24.9202 23.871 25.0014 24.0931 24.9996C24.6295 24.9996 25.047 24.5334 24.9957 24.0015C24.6492 20.4053 22.4335 17.7405 19.398 16.6056M16.0006 16C14.0054 16 12.3837 14.3854 12.3837 12.4001C12.3837 10.4148 14.0054 8.80028 16.0006 8.80028C17.9958 8.80028 19.6176 10.4148 19.6176 12.4001C19.6176 14.3854 17.9958 16 16.0006 16Z" stroke="#2D2B18" stroke-width="0.3"/>
</svg>
