<?xml version="1.0" encoding="UTF-8" standalone="no"?>
<svg
   version="1.1"
   width="32"
   height="32"
   viewBox="0 0 225 225"
   id="svg3"
   sodipodi:docname="icon-ruler-fill.svg"
   inkscape:version="1.4 (e7c3feb100, 2024-10-09)"
   xmlns:inkscape="http://www.inkscape.org/namespaces/inkscape"
   xmlns:sodipodi="http://sodipodi.sourceforge.net/DTD/sodipodi-0.dtd"
   xmlns="http://www.w3.org/2000/svg"
   xmlns:svg="http://www.w3.org/2000/svg">
  <sodipodi:namedview
     id="namedview1"
     pagecolor="#ffffff"
     bordercolor="#000000"
     borderopacity="0.25"
     inkscape:showpageshadow="2"
     inkscape:pageopacity="0.0"
     inkscape:pagecheckerboard="0"
     inkscape:deskcolor="#d1d1d1"
     inkscape:zoom="20.5"
     inkscape:cx="15.243902"
     inkscape:cy="19.512195"
     inkscape:window-width="1916"
     inkscape:window-height="1041"
     inkscape:window-x="0"
     inkscape:window-y="0"
     inkscape:window-maximized="1"
     inkscape:current-layer="svg3" />
  <defs
     id="defs3" />
  <path
     d="m 150.19817,47.08025 c 1.42795,0.998778 2.46214,1.869397 3.65701,3.098345 0.33896,0.331424 0.6779,0.662848 1.02713,1.004315 1.12853,1.108816 2.24112,2.232523 3.35452,3.356678 0.80971,0.800997 1.62031,1.601059 2.43179,2.400245 2.14278,2.116966 4.26982,4.249099 6.39101,6.387908 1.312,1.322263 2.62732,2.641128 3.94295,3.959738 0.85125,0.856136 1.7023,1.712463 2.55314,2.569004 0.38528,0.386036 0.77055,0.772073 1.16748,1.169808 2.33464,2.359281 4.54439,4.793353 6.6927,7.32556 0.97771,1.146639 0.97771,1.146639 2.4442,2.334268 0.96619,1.204372 0.96619,1.204372 1.22223,3.244035 -0.3275,2.956823 -1.21927,3.718286 -3.38649,5.691633 -1.9454,1.800048 -3.78426,3.554213 -5.48945,5.585223 -3.14831,3.64023 -6.56797,7.01102 -9.96213,10.41656 -0.74817,0.75294 -1.4962,1.50602 -2.24411,2.25921 -2.01974,2.03319 -4.0414,4.06441 -6.06353,6.09519 -2.12286,2.13245 -4.24421,4.26642 -6.3658,6.40015 -3.56207,3.58193 -7.12546,7.16255 -10.68955,10.74245 -4.11185,4.1301 -8.22148,8.26243 -12.32995,12.39592 -3.5369,3.55833 -7.07502,7.11544 -10.61413,10.67155 -2.10964,2.11976 -4.21887,4.23996 -6.32701,6.36124 -1.98263,1.99485 -3.96677,3.98816 -5.95208,5.98032 -0.72537,0.72839 -1.45023,1.45729 -2.17451,2.18676 -3.38569,3.40934 -6.765098,6.79298 -10.42944,9.90434 -2.025877,1.78038 -3.770948,3.85979 -5.563901,5.8721 -1.601451,1.2068 -1.601451,1.2068 -3.570055,1.73372 -2.608258,-0.58236 -3.324107,-1.21288 -5.241263,-3.00244 -0.545578,-0.50831 -1.091151,-1.01664 -1.653263,-1.54036 -2.491803,-2.38548 -4.946109,-4.8042 -7.376051,-7.25326 -0.516261,-0.51837 -1.03253,-1.03676 -1.564437,-1.57086 -1.080985,-1.08625 -2.161202,-2.17326 -3.240679,-3.26104 -1.641972,-1.65395 -3.287234,-3.30454 -4.932837,-4.95483 -1.056963,-1.06293 -2.113738,-2.12606 -3.170298,-3.1894 -0.485771,-0.48707 -0.971536,-0.97413 -1.472029,-1.47596 -1.34811,-1.36091 -2.680013,-2.73604 -4.008663,-4.11611 -0.429822,-0.4291 -0.859637,-0.85818 -1.302481,-1.30027 -1.922764,-2.01762 -2.926868,-3.16596 -3.473047,-5.95647 0.554515,-2.56463 1.387061,-3.50839 3.270694,-5.30904 0.291688,-0.2856 0.583374,-0.57118 0.883896,-0.86542 0.931559,-0.90816 1.876733,-1.80015 2.823843,-2.69185 0.925685,-0.88993 1.848271,-1.783 2.770293,-2.67678 0.890573,-0.86298 1.783714,-1.72329 2.676885,-2.58354 1.795455,-1.78546 3.457907,-3.64236 5.074441,-5.59132 1.367409,-1.5516 3.007539,-2.78062 4.589539,-4.10589 0.669125,-0.74451 1.324927,-1.50125 1.970445,-2.26655 2.330429,-2.7073 4.795822,-5.24881 7.314151,-7.7788 0.47511,-0.47968 0.950226,-0.95938 1.439734,-1.45362 1.554857,-1.56889 3.111992,-3.13547 4.669435,-4.70178 1.086135,-1.09384 2.172221,-2.18773 3.258264,-3.28167 2.267647,-2.28327 4.536554,-4.56528 6.806228,-6.84652 2.333475,-2.3457 4.664845,-4.69348 6.993986,-7.04352 2.81679,-2.841925 5.63655,-5.680832 8.45868,-8.517394 1.07522,-1.081609 2.14944,-2.16423 3.22263,-3.247866 1.49355,-1.507447 2.9909,-3.010951 4.48932,-4.513492 0.44555,-0.451378 0.89109,-0.902755 1.35012,-1.367809 0.40649,-0.406011 0.81297,-0.81202 1.23176,-1.230334 0.35349,-0.355675 0.70696,-0.71135 1.07116,-1.077804 0.90299,-0.753036 0.90299,-0.753036 2.13971,-0.753036 0,-0.410263 0,-0.820527 0,-1.243222 0.76555,-0.746815 0.76555,-0.746815 1.91063,-1.673009 2.58809,-2.208836 4.93621,-4.592795 7.28989,-7.046549 0.78123,-0.807527 1.56263,-1.61489 2.3442,-2.422099 1.21167,-1.252691 2.41958,-2.508219 3.61821,-3.773527 1.17168,-1.234299 2.35669,-2.454204 3.54486,-3.672456 0.35438,-0.380662 0.70876,-0.761324 1.07391,-1.153523 2.37924,-2.407961 3.91299,-3.346272 7.42611,-2.63685 z"
     fill="#828282"
     id="path2"
     style="fill:#ffffff;fill-opacity:0;stroke-width:0.619983" />
  <path
     d="m 159.62334,36.228956 c 2.28894,0.858498 3.49214,2.068256 5.22717,3.810999 1.00037,0.996823 1.00037,0.996823 2.02096,2.013782 0.71143,0.723084 1.42291,1.446174 2.15592,2.191169 0.73396,0.739701 1.46792,1.4794 2.2241,2.241517 1.54949,1.566059 3.09597,3.134632 4.63853,4.707696 1.97921,2.017011 3.97316,4.018171 5.97148,6.015583 1.90264,1.90718 3.79022,3.829641 5.67958,5.750409 0.71985,0.717963 1.4397,1.435926 2.18137,2.175645 0.65384,0.672525 1.30767,1.345049 1.98134,2.037953 0.58142,0.589352 1.16287,1.178705 1.76194,1.785916 1.13789,1.68097 1.13789,1.68097 1.08249,3.159117 -1.1692,2.862599 -3.25561,4.771785 -5.38783,6.918534 -0.48628,0.499484 -0.97256,0.998967 -1.47358,1.513586 -1.63498,1.676149 -3.27876,3.343092 -4.92264,5.010213 -1.1724,1.19802 -2.34429,2.396583 -3.5157,3.59562 -3.18618,3.257805 -6.38034,6.507359 -9.57656,9.754959 -2.66439,2.708476 -5.32517,5.420586 -7.98604,8.132606 -6.27448,6.39477 -12.55573,12.78258 -18.841,19.16636 -6.49321,6.59527 -12.97409,13.20289 -19.44911,19.81656 -5.55313,5.67104 -11.11418,11.33395 -16.68165,16.99043 -3.32811,3.38155 -6.65297,6.76623 -9.970091,10.15892 -3.117523,3.18793 -6.244772,6.36559 -9.379952,9.53555 -1.151592,1.16778 -2.299621,2.33922 -3.443873,3.51444 -1.557293,1.59835 -3.12669,3.18324 -4.699954,4.76528 -0.454669,0.47278 -0.909339,0.94554 -1.377787,1.43264 -1.279709,1.27074 -1.279709,1.27074 -3.551799,3.05448 -3.109626,-0.094 -4.599773,-1.81752 -6.755648,-3.98294 -0.666918,-0.66455 -1.333824,-1.32909 -2.020952,-2.01379 -0.711455,-0.72308 -1.422912,-1.44618 -2.155932,-2.19117 -1.100932,-1.10954 -1.100932,-1.10954 -2.224097,-2.24152 -1.549491,-1.56605 -3.095968,-3.13463 -4.638516,-4.70769 -1.979203,-2.01701 -3.973171,-4.01818 -5.971496,-6.0156 -1.902638,-1.90716 -3.790215,-3.82964 -5.679569,-5.75038 -0.719852,-0.71799 -1.439715,-1.43594 -2.181381,-2.17566 -0.653839,-0.67253 -1.307668,-1.34505 -1.981315,-2.03793 -0.581452,-0.58937 -1.162894,-1.17873 -1.761955,-1.78594 -1.137902,-1.68095 -1.137902,-1.68095 -0.981446,-3.48148 0.850208,-1.98696 1.928851,-3.2456 3.421818,-4.78935 0.493083,-0.52734 0.986167,-1.05471 1.494188,-1.59804 1.565495,-1.09063 1.565495,-1.09063 3.179209,-0.88056 3.27774,1.21756 5.511917,4.56361 7.774398,7.19858 2.413952,2.63086 3.362357,3.48646 7.00907,3.97534 2.753225,-0.153 2.753225,-0.153 4.346434,-2.10544 0.535507,-3.02437 0.568209,-5.0256 -1.124695,-7.64427 -2.917838,-3.45729 -6.134848,-6.42726 -9.661985,-9.22581 0.477734,-2.82782 1.321841,-4.16535 3.370837,-6.11538 0.681867,-0.6589 0.681867,-0.6589 1.377508,-1.33114 0.349754,-0.32621 0.699516,-0.6524 1.059867,-0.9885 4.052505,1.54368 6.626166,5.12894 9.388112,8.36749 1.243638,1.35212 2.34383,2.45771 3.8878,3.44154 3.097181,0.21254 3.097181,0.21254 5.808216,-0.84347 1.8379,-2.80257 2.234971,-3.49792 1.659488,-6.74802 -1.419611,-2.10263 -3.120355,-3.87752 -4.87475,-5.69366 -0.460989,-0.49691 -0.921988,-0.9938 -1.396951,-1.50577 -2.41287,-2.64243 -2.41287,-2.64243 -5.344724,-4.6096 1.294011,-3.22889 3.183164,-5.36773 5.808214,-7.59154 2.598336,0.0421 3.497643,1.00876 5.431626,2.79761 0.793432,0.84683 1.580916,1.69942 2.363438,2.55666 0.869772,0.9203 1.740047,1.84014 2.610776,2.75949 1.360656,1.45119 2.716277,2.90643 4.06303,4.37097 1.306107,1.41465 2.629974,2.81004 3.957296,4.2041 0.395205,0.44017 0.790409,0.88034 1.197583,1.33384 2.260986,2.34874 3.458786,3.04645 6.7099,3.44525 2.77276,-0.1073 2.77276,-0.1073 4.36689,-2.06735 0.66546,-2.71718 0.66546,-2.71718 0,-5.90454 -1.79831,-2.6875 -4.00237,-4.89411 -6.274936,-7.16975 -0.584517,-0.60782 -1.169056,-1.21565 -1.771309,-1.84188 -1.728683,-1.79134 -3.477792,-3.56001 -5.229659,-5.32788 -0.552842,-0.57195 -1.105684,-1.14389 -1.67529,-1.73316 -0.773519,-0.79919 -0.773519,-0.79919 -1.562658,-1.6145 -0.456653,-0.47355 -0.913295,-0.94706 -1.383782,-1.43496 -1.171344,-1.21323 -1.171344,-1.21323 -2.845969,-1.96542 0.480334,-2.77305 1.284684,-4.16412 3.267115,-6.11539 0.435323,-0.43928 0.870658,-0.87855 1.319163,-1.33115 1.221934,-0.98848 1.221934,-0.98848 2.881421,-0.98848 1.22841,1.2982 1.22841,1.2982 2.644816,3.05769 4.009992,4.92293 4.009992,4.92293 8.971608,8.75136 3.12773,0.22995 3.12773,0.22995 5.80822,-0.84354 1.86469,-2.34626 1.86469,-2.34626 1.68866,-4.85671 -1.20295,-3.83019 -3.45648,-5.8373 -6.30413,-8.53387 -0.51073,-0.50017 -1.02146,-1.00033 -1.54765,-1.51565 -1.25539,-1.226763 -2.52339,-2.440143 -3.79382,-3.650796 1.42845,-3.175682 3.31262,-5.188068 5.8082,-7.59153 2.54496,1.146727 4.21295,2.429353 6.11937,4.481119 0.50165,0.518644 1.00329,1.037301 1.52012,1.571672 0.93182,0.963794 1.86321,1.928051 2.79391,2.892959 2.22568,2.120036 3.26762,2.871196 6.36894,2.810566 2.36792,-0.63026 2.36792,-0.63026 3.94128,-2.477785 0.59406,-2.783683 0.59406,-2.783683 0,-5.904503 -1.54906,-2.184841 -3.45252,-3.878613 -5.4452,-5.640938 -1.02985,-0.924525 -2.05134,-1.858806 -3.06292,-2.80397 -0.45624,-0.404157 -0.91249,-0.808301 -1.38256,-1.224697 -0.89599,-1.295929 -0.89599,-1.295929 -0.74347,-2.992212 1.06529,-2.639143 2.67399,-4.11461 4.82594,-5.895241 2.5994,0.04193 3.49646,1.007657 5.43163,2.797605 0.79343,0.846812 1.58092,1.699418 2.36343,2.556656 0.86978,0.920304 1.74006,1.840122 2.61079,2.759499 1.36065,1.451168 2.71626,2.906428 4.06302,4.370927 1.30612,1.414686 2.62997,2.810062 3.95731,4.204135 0.39521,0.440158 0.79039,0.880329 1.19757,1.333838 2.23715,2.323958 3.44484,3.044396 6.65804,3.44527 2.86722,-0.186787 2.86722,-0.186787 5.24851,-2.067371 0.39409,-2.843212 0.38307,-4.443055 -1.13766,-6.896291 -0.84873,-0.892161 -0.84873,-0.892161 -1.71458,-1.802328 -0.6653,-0.707858 -1.3306,-1.415704 -2.01602,-2.145007 -0.86502,-0.885614 -1.73172,-1.769538 -2.59943,-2.652417 -0.57359,-0.588928 -1.14714,-1.177849 -1.7381,-1.784619 -4.10007,-4.208098 -8.22463,-8.390436 -12.36757,-12.554921 1.42845,-3.175685 3.31262,-5.188076 5.80822,-7.591519 3.19167,1.324945 5.14666,3.401312 7.51955,5.904515 2.15107,2.262361 4.00713,4.156689 6.58611,5.904515 3.7409,-0.290547 3.7409,-0.290547 6.63794,-2.530506 0.43077,-3.175954 0.30507,-4.605635 -1.48771,-7.281797 -0.65564,-0.693715 -1.3113,-1.387428 -1.98683,-2.102167 -0.64498,-0.698062 -1.28995,-1.396126 -1.95444,-2.115344 -1.97434,-1.933682 -4.01726,-3.67007 -6.18745,-5.370737 1.67859,-3.741997 4.13104,-6.227164 6.94912,-9.120368 0.47919,-0.514847 0.95836,-1.029698 1.45207,-1.560149 0.70271,-0.723344 0.70271,-0.723344 1.41964,-1.4613 0.42395,-0.442338 0.8479,-0.884678 1.28471,-1.340419 1.34065,-0.8573 1.34065,-0.8573 2.86912,-0.685348 z"
     fill="#fdfdfd"
     id="path3"
     style="fill:#2d2b18;fill-opacity:1;stroke-width:0.836595" />
  <path
     style="fill:#ffffff;fill-opacity:0;stroke:#2d2b18;stroke-width:6.02336;stroke-linejoin:round;stroke-dasharray:none"
     d="M 36.943847,160.3571 159.62334,36.228956"
     id="path1" />
</svg>
