<svg width="32" height="32" viewBox="0 0 32 32" fill="none" xmlns="http://www.w3.org/2000/svg">
<path d="M25.32 9.0503L19.32 7.0503H19.25C19.2035 7.04562 19.1566 7.04562 19.11 7.0503H18.88H18.75H18.68L13 9.0003L7.32 7.0503C7.16962 7.00071 7.00961 6.98754 6.85314 7.01188C6.69667 7.03622 6.54822 7.09737 6.42 7.1903C6.29076 7.28232 6.18527 7.40376 6.11224 7.54461C6.03921 7.68545 6.00074 7.84165 6 8.0003V22.0003C5.99946 22.2099 6.06482 22.4145 6.18685 22.5849C6.30887 22.7554 6.48138 22.8832 6.68 22.9503L12.68 24.9503C12.8815 25.016 13.0986 25.016 13.3 24.9503L19 23.0503L24.68 25.0003C24.7862 25.0147 24.8938 25.0147 25 25.0003C25.2091 25.0032 25.4132 24.9364 25.58 24.8103C25.7092 24.7183 25.8147 24.5968 25.8878 24.456C25.9608 24.3151 25.9993 24.1589 26 24.0003V10.0003C26.0005 9.79066 25.9352 9.58614 25.8132 9.41567C25.6911 9.2452 25.5186 9.11738 25.32 9.0503ZM12 22.6103L8 21.2803V9.3903L12 10.7203V22.6103ZM18 21.2803L14 22.6103V10.7203L18 9.3903V21.2803ZM24 22.6103L20 21.2803V9.3903L24 10.7203V22.6103Z" fill="#2D2B18"/>
</svg>
