<?xml version="1.0" encoding="UTF-8" standalone="no"?>
<svg
   version="1.1"
   width="32"
   height="32"
   viewBox="0 0 225 225"
   id="svg3"
   sodipodi:docname="icon-ruler.svg"
   inkscape:version="1.4 (e7c3feb100, 2024-10-09)"
   xmlns:inkscape="http://www.inkscape.org/namespaces/inkscape"
   xmlns:sodipodi="http://sodipodi.sourceforge.net/DTD/sodipodi-0.dtd"
   xmlns="http://www.w3.org/2000/svg"
   xmlns:svg="http://www.w3.org/2000/svg">
  <sodipodi:namedview
     id="namedview1"
     pagecolor="#ffffff"
     bordercolor="#000000"
     borderopacity="0.25"
     inkscape:showpageshadow="2"
     inkscape:pageopacity="0.0"
     inkscape:pagecheckerboard="0"
     inkscape:deskcolor="#d1d1d1"
     inkscape:zoom="7.2478445"
     inkscape:cx="20.14392"
     inkscape:cy="20.557836"
     inkscape:window-width="921"
     inkscape:window-height="1041"
     inkscape:window-x="601"
     inkscape:window-y="0"
     inkscape:window-maximized="1"
     inkscape:current-layer="svg3" />
  <defs
     id="defs3" />
  <path
     d="m 0,0 c 74.25,0 148.5,0 225,0 0,74.25 0,148.5 0,225 -74.25,0 -148.5,0 -225,0 C 0,150.75 0,76.5 0,0 Z"
     fill="#fefefe"
     id="path1"
     style="fill:#fefefe;fill-opacity:0" />
  <path
     d="m 150.19817,47.08025 c 1.42795,0.998778 2.46214,1.869397 3.65701,3.098345 0.33896,0.331424 0.6779,0.662848 1.02713,1.004315 1.12853,1.108816 2.24112,2.232523 3.35452,3.356678 0.80971,0.800997 1.62031,1.601059 2.43179,2.400245 2.14278,2.116966 4.26982,4.249099 6.39101,6.387908 1.312,1.322263 2.62732,2.641128 3.94295,3.959738 0.85125,0.856136 1.7023,1.712463 2.55314,2.569004 0.38528,0.386036 0.77055,0.772073 1.16748,1.169808 2.33464,2.359281 4.54439,4.793353 6.6927,7.32556 0.97771,1.146639 0.97771,1.146639 2.4442,2.334268 0.96619,1.204372 0.96619,1.204372 1.22223,3.244035 -0.3275,2.956823 -1.21927,3.718286 -3.38649,5.691633 -1.9454,1.800048 -3.78426,3.554213 -5.48945,5.585223 -3.14831,3.64023 -6.56797,7.01102 -9.96213,10.41656 -0.74817,0.75294 -1.4962,1.50602 -2.24411,2.25921 -2.01974,2.03319 -4.0414,4.06441 -6.06353,6.09519 -2.12286,2.13245 -4.24421,4.26642 -6.3658,6.40015 -3.56207,3.58193 -7.12546,7.16255 -10.68955,10.74245 -4.11185,4.1301 -8.22148,8.26243 -12.32995,12.39592 -3.5369,3.55833 -7.07502,7.11544 -10.61413,10.67155 -2.10964,2.11976 -4.21887,4.23996 -6.32701,6.36124 -1.98263,1.99485 -3.96677,3.98816 -5.95208,5.98032 -0.72537,0.72839 -1.45023,1.45729 -2.17451,2.18676 -3.38569,3.40934 -6.765098,6.79298 -10.42944,9.90434 -2.025877,1.78038 -3.770948,3.85979 -5.563901,5.8721 -1.601451,1.2068 -1.601451,1.2068 -3.570055,1.73372 -2.608258,-0.58236 -3.324107,-1.21288 -5.241263,-3.00244 -0.545578,-0.50831 -1.091151,-1.01664 -1.653263,-1.54036 -2.491803,-2.38548 -4.946109,-4.8042 -7.376051,-7.25326 -0.516261,-0.51837 -1.03253,-1.03676 -1.564437,-1.57086 -1.080985,-1.08625 -2.161202,-2.17326 -3.240679,-3.26104 -1.641972,-1.65395 -3.287234,-3.30454 -4.932837,-4.95483 -1.056963,-1.06293 -2.113738,-2.12606 -3.170298,-3.1894 -0.485771,-0.48707 -0.971536,-0.97413 -1.472029,-1.47596 -1.34811,-1.36091 -2.680013,-2.73604 -4.008663,-4.11611 -0.429822,-0.4291 -0.859637,-0.85818 -1.302481,-1.30027 -1.922764,-2.01762 -2.926868,-3.16596 -3.473047,-5.95647 0.554515,-2.56463 1.387061,-3.50839 3.270694,-5.30904 0.291688,-0.2856 0.583374,-0.57118 0.883896,-0.86542 0.931559,-0.90816 1.876733,-1.80015 2.823843,-2.69185 0.925685,-0.88993 1.848271,-1.783 2.770293,-2.67678 0.890573,-0.86298 1.783714,-1.72329 2.676885,-2.58354 1.795455,-1.78546 3.457907,-3.64236 5.074441,-5.59132 1.367409,-1.5516 3.007539,-2.78062 4.589539,-4.10589 0.669125,-0.74451 1.324927,-1.50125 1.970445,-2.26655 2.330429,-2.7073 4.795822,-5.24881 7.314151,-7.7788 0.47511,-0.47968 0.950226,-0.95938 1.439734,-1.45362 1.554857,-1.56889 3.111992,-3.13547 4.669435,-4.70178 1.086135,-1.09384 2.172221,-2.18773 3.258264,-3.28167 2.267647,-2.28327 4.536554,-4.56528 6.806228,-6.84652 2.333475,-2.3457 4.664845,-4.69348 6.993986,-7.04352 2.81679,-2.841925 5.63655,-5.680832 8.45868,-8.517394 1.07522,-1.081609 2.14944,-2.16423 3.22263,-3.247866 1.49355,-1.507447 2.9909,-3.010951 4.48932,-4.513492 0.44555,-0.451378 0.89109,-0.902755 1.35012,-1.367809 0.40649,-0.406011 0.81297,-0.81202 1.23176,-1.230334 0.35349,-0.355675 0.70696,-0.71135 1.07116,-1.077804 0.90299,-0.753036 0.90299,-0.753036 2.13971,-0.753036 0,-0.410263 0,-0.820527 0,-1.243222 0.76555,-0.746815 0.76555,-0.746815 1.91063,-1.673009 2.58809,-2.208836 4.93621,-4.592795 7.28989,-7.046549 0.78123,-0.807527 1.56263,-1.61489 2.3442,-2.422099 1.21167,-1.252691 2.41958,-2.508219 3.61821,-3.773527 1.17168,-1.234299 2.35669,-2.454204 3.54486,-3.672456 0.35438,-0.380662 0.70876,-0.761324 1.07391,-1.153523 2.37924,-2.407961 3.91299,-3.346272 7.42611,-2.63685 z"
     fill="#828282"
     id="path2"
     style="fill:#2d2b18;fill-opacity:1;stroke-width:0.619983" />
  <path
     d="m 148.24546,57.774364 c 1.70581,0.632662 2.60248,1.524183 3.8955,2.808482 0.74551,0.7346 0.74551,0.7346 1.5061,1.484039 0.53019,0.53287 1.06041,1.065744 1.60668,1.614762 0.54697,0.545116 1.09395,1.090231 1.65749,1.651866 1.15474,1.154093 2.30724,2.310039 3.45682,3.469295 1.47498,1.486418 2.96096,2.961155 4.45019,4.43313 1.41792,1.405479 2.82462,2.82222 4.23265,4.237713 0.53646,0.529096 1.07292,1.058193 1.62565,1.603322 0.48726,0.495611 0.97452,0.991222 1.47657,1.501851 0.4333,0.434318 0.86662,0.868636 1.31307,1.316115 0.848,1.238776 0.848,1.238776 0.80672,2.328083 -0.87134,2.109567 -2.42622,3.516525 -4.01524,5.098553 -0.36239,0.36809 -0.72479,0.736179 -1.09816,1.115423 -1.21846,1.235223 -2.44347,2.463662 -3.66856,3.692232 -0.87372,0.88287 -1.74706,1.76614 -2.62004,2.64976 -2.37447,2.40081 -4.75489,4.79554 -7.13684,7.18883 -1.98561,1.99599 -3.96853,3.99465 -5.95152,5.99325 -4.676,4.71257 -9.35704,9.42001 -14.04108,14.12448 -4.839,4.86032 -9.66881,9.72975 -14.49427,14.60364 -4.13841,4.17922 -8.28273,8.35245 -12.43184,12.52094 -2.48024,2.49201 -4.95806,4.98632 -7.43011,7.48653 -2.323306,2.34931 -4.653861,4.69107 -6.990324,7.02714 -0.858213,0.86058 -1.713771,1.72387 -2.566514,2.58993 -1.160558,1.17789 -2.330136,2.34586 -3.502596,3.51173 -0.338838,0.34841 -0.677676,0.69681 -1.026783,1.05577 -0.953691,0.93647 -0.953691,0.93647 -2.646944,2.25098 -2.31742,-0.0693 -3.427938,-1.33941 -5.034583,-2.9352 -0.497014,-0.48973 -0.99402,-0.97946 -1.506096,-1.48404 -0.530205,-0.53287 -1.060411,-1.06575 -1.606688,-1.61476 -0.820459,-0.81767 -0.820459,-0.81767 -1.657487,-1.65187 -1.154744,-1.15409 -2.307241,-2.31004 -3.45681,-3.46929 -1.474983,-1.48642 -2.960969,-2.96116 -4.450201,-4.43314 -1.417923,-1.40547 -2.824622,-2.82222 -4.232645,-4.2377 -0.536464,-0.52911 -1.072934,-1.0582 -1.625654,-1.60333 -0.487267,-0.49561 -0.974528,-0.99122 -1.476556,-1.50184 -0.433322,-0.43433 -0.866636,-0.86865 -1.31308,-1.31612 -0.848011,-1.23877 -0.848011,-1.23877 -0.731414,-2.56565 0.633609,-1.46428 1.437458,-2.39182 2.550078,-3.52947 0.367465,-0.38862 0.734931,-0.77726 1.113529,-1.17766 1.16667,-0.80373 1.16667,-0.80373 2.369275,-0.64892 2.442705,0.89727 4.107704,3.36311 5.793797,5.30493 1.798975,1.93878 2.505765,2.56931 5.223443,2.92959 2.051815,-0.11275 2.051815,-0.11275 3.239139,-1.55159 0.399082,-2.22878 0.423453,-3.70357 -0.838168,-5.63337 -2.174491,-2.54783 -4.571938,-4.73652 -7.200503,-6.79888 0.356026,-2.08394 0.985089,-3.06962 2.512084,-4.50668 0.508155,-0.48557 0.508155,-0.48557 1.026575,-0.98097 0.260651,-0.24039 0.521308,-0.48078 0.789856,-0.72846 3.020091,1.1376 4.938088,3.77972 6.996402,6.16634 0.926809,0.99643 1.746717,1.81119 2.897346,2.53622 2.308145,0.15663 2.308145,0.15663 4.328518,-0.6216 1.369678,-2.06533 1.665591,-2.57775 1.236718,-4.97289 -1.057952,-1.54951 -2.325415,-2.8575 -3.632861,-4.19589 -0.343548,-0.36619 -0.687103,-0.73237 -1.041065,-1.10966 -1.798169,-1.94732 -1.798169,-1.94732 -3.983105,-3.39701 0.96435,-2.3795 2.372223,-3.9557 4.328516,-5.59451 1.936386,0.031 2.606586,0.74339 4.047869,2.06167 0.591298,0.62406 1.178163,1.25237 1.761329,1.88411 0.64819,0.6782 1.296754,1.35607 1.945657,2.03358 1.014015,1.06944 2.024282,2.14187 3.027938,3.22114 0.97336,1.04252 1.959956,2.07084 2.949133,3.09818 0.29452,0.32438 0.589042,0.64876 0.892487,0.98296 1.684978,1.73088 2.577628,2.24506 5.000498,2.53895 2.06637,-0.0791 2.06637,-0.0791 3.25438,-1.52352 0.49593,-2.0024 0.49593,-2.0024 0,-4.35129 -1.34018,-1.98054 -2.98273,-3.60668 -4.67634,-5.28369 -0.43561,-0.44793 -0.87123,-0.89586 -1.32005,-1.35735 -1.28829,-1.32012 -2.591789,-2.62352 -3.897354,-3.92634 -0.412003,-0.42149 -0.824006,-0.84298 -1.248494,-1.27723 -0.576456,-0.58896 -0.576456,-0.58896 -1.164558,-1.1898 -0.340312,-0.34897 -0.680626,-0.69793 -1.031252,-1.05748 -0.87293,-0.89407 -0.87293,-0.89407 -2.12093,-1.44839 0.357965,-2.04358 0.957395,-3.06872 2.43479,-4.50669 0.324421,-0.32372 0.648842,-0.64744 0.983094,-0.98098 0.910631,-0.72845 0.910631,-0.72845 2.14735,-0.72845 0.915461,0.9567 0.915461,0.9567 1.971024,2.25334 2.98841,3.62791 2.98841,3.62791 6.68601,6.44923 2.33091,0.16946 2.33091,0.16946 4.32851,-0.62163 1.38965,-1.72906 1.38965,-1.72906 1.25847,-3.57911 -0.89649,-2.82263 -2.57592,-4.30175 -4.6981,-6.28896 -0.38061,-0.3686 -0.76123,-0.73719 -1.15337,-1.11695 -0.93557,-0.90405 -1.88054,-1.79824 -2.82731,-2.69042 1.06454,-2.34029 2.4687,-3.8233 4.32851,-5.59451 1.89661,0.84507 3.13966,1.79029 4.5604,3.30232 0.37385,0.38221 0.74769,0.76443 1.13286,1.15823 0.69443,0.71026 1.38853,1.42086 2.08213,2.13194 1.65867,1.56234 2.43516,2.1159 4.74639,2.07122 1.76467,-0.46446 1.76467,-0.46446 2.9372,-1.82598 0.44272,-2.05141 0.44272,-2.05141 0,-4.35127 -1.15442,-1.6101 -2.57295,-2.85831 -4.05798,-4.15704 -0.76749,-0.68132 -1.52874,-1.36983 -2.28261,-2.06636 -0.34001,-0.29784 -0.68003,-0.59567 -1.03034,-0.90253 -0.66773,-0.955023 -0.66773,-0.955023 -0.55406,-2.205084 0.79389,-1.944893 1.99276,-3.032225 3.59648,-4.344445 1.93718,0.0309 2.6057,0.742584 4.04787,2.06167 0.5913,0.62405 1.17817,1.252371 1.76133,1.884105 0.64819,0.67821 1.29676,1.356062 1.94566,2.033588 1.01402,1.069426 2.02427,2.141866 3.02793,3.221116 0.97337,1.04254 1.95996,2.07085 2.94914,3.0982 0.29453,0.32437 0.58904,0.64875 0.89248,0.98296 1.66722,1.71262 2.56724,2.24354 4.96185,2.53896 2.13677,-0.13765 2.13677,-0.13765 3.9114,-1.52353 0.29369,-2.09528 0.28548,-3.27427 -0.84783,-5.08216 -0.63251,-0.65747 -0.63251,-0.65747 -1.27778,-1.32821 -0.4958,-0.52165 -0.99161,-1.04329 -1.50242,-1.580744 -0.64464,-0.652645 -1.29054,-1.304045 -1.9372,-1.954674 -0.42746,-0.434006 -0.8549,-0.868006 -1.2953,-1.31516 -3.05554,-3.10112 -6.12933,-6.183257 -9.21681,-9.252237 1.06453,-2.340293 2.46869,-3.823306 4.32851,-5.594502 2.37857,0.976406 3.83551,2.506566 5.60388,4.35128 1.60307,1.667226 2.98627,3.063234 4.90824,4.351279 2.78787,-0.214116 2.78787,-0.214116 4.94686,-1.864833 0.32103,-2.340492 0.22735,-3.394082 -1.1087,-5.366256 -0.48861,-0.511227 -0.97724,-1.022453 -1.48067,-1.549173 -0.48067,-0.514431 -0.96132,-1.028863 -1.45653,-1.558884 -1.47136,-1.42501 -2.99382,-2.704626 -4.61113,-3.957917 1.25095,-2.757632 3.07861,-4.589053 5.17876,-6.721174 0.35711,-0.379412 0.71421,-0.758827 1.08214,-1.149738 0.52369,-0.533062 0.52369,-0.533062 1.05797,-1.076892 0.31595,-0.325977 0.63189,-0.651956 0.95742,-0.98781 0.99911,-0.63178 0.99911,-0.63178 2.13819,-0.505061 z"
     fill="#fdfdfd"
     id="path3"
     style="stroke-width:0.619983" />
</svg>
